<svg xmlns="http://www.w3.org/2000/svg" width="269.243" height="90" viewBox="0 0 269.243 90">
  <g id="image-button-download" transform="translate(0 0)">
    <g id="Group_20713" data-name="Group 20713" transform="translate(0 0)">
      <g id="Group_20711" data-name="Group 20711">
        <path id="Path_83031" data-name="Path 83031" d="M247.8,0H21.453c-.825,0-1.64,0-2.463,0-.689,0-1.372.018-2.068.029a29.733,29.733,0,0,0-4.509.4A15,15,0,0,0,8.136,1.842,14.485,14.485,0,0,0,4.495,4.494,14.081,14.081,0,0,0,1.844,8.141,14.853,14.853,0,0,0,.437,12.423a29.234,29.234,0,0,0-.4,4.5C.013,17.618.011,18.31,0,19V71.007c.011.7.013,1.375.034,2.074a29.233,29.233,0,0,0,.4,4.5A14.822,14.822,0,0,0,1.844,81.87,13.968,13.968,0,0,0,4.495,85.5a14.118,14.118,0,0,0,3.642,2.652,15.077,15.077,0,0,0,4.277,1.419,30.272,30.272,0,0,0,4.509.4c.7.015,1.379.024,2.068.024.823,0,1.638,0,2.463,0H247.8c.809,0,1.63,0,2.439,0,.686,0,1.389-.009,2.074-.024a29.876,29.876,0,0,0,4.5-.4,15.31,15.31,0,0,0,4.293-1.419,14.125,14.125,0,0,0,3.639-2.652,14.39,14.39,0,0,0,2.659-3.632,14.859,14.859,0,0,0,1.393-4.285,30.379,30.379,0,0,0,.418-4.5c.009-.7.009-1.376.009-2.074.018-.817.018-1.63.018-2.461V21.456c0-.824,0-1.641-.018-2.457,0-.69,0-1.382-.009-2.072a30.382,30.382,0,0,0-.418-4.5,14.889,14.889,0,0,0-1.393-4.282,14.549,14.549,0,0,0-6.3-6.3A15.227,15.227,0,0,0,256.816.431a29.348,29.348,0,0,0-4.5-.4C251.63.022,250.927.009,250.241,0c-.809,0-1.63,0-2.439,0Z" transform="translate(0 0)" fill="#a6a6a6"/>
        <path id="Path_83032" data-name="Path 83032" d="M17.91,86.937c-.686,0-1.354-.009-2.035-.024a28.547,28.547,0,0,1-4.206-.367,13.239,13.239,0,0,1-3.728-1.233A12.163,12.163,0,0,1,4.8,83.026a11.972,11.972,0,0,1-2.3-3.142,12.874,12.874,0,0,1-1.222-3.729,27.93,27.93,0,0,1-.375-4.219c-.014-.475-.033-2.054-.033-2.054V17.906s.02-1.556.033-2.013a27.833,27.833,0,0,1,.372-4.212A12.95,12.95,0,0,1,2.5,7.941,12.09,12.09,0,0,1,4.785,4.8,12.522,12.522,0,0,1,7.941,2.5a13.1,13.1,0,0,1,3.72-1.224A28.319,28.319,0,0,1,15.88.9l2.03-.027H249.139L251.194.9a27.866,27.866,0,0,1,4.181.366,13.361,13.361,0,0,1,3.76,1.233,12.586,12.586,0,0,1,5.434,5.445,12.966,12.966,0,0,1,1.2,3.71,29.239,29.239,0,0,1,.391,4.246c.007.637.007,1.322.007,2,.018.844.018,1.647.018,2.457V67.452c0,.817,0,1.615-.018,2.419,0,.732,0,1.4-.009,2.092a28.64,28.64,0,0,1-.384,4.17,12.913,12.913,0,0,1-1.215,3.757,12.331,12.331,0,0,1-2.285,3.118,12.179,12.179,0,0,1-3.149,2.3,13.189,13.189,0,0,1-3.753,1.237,28.221,28.221,0,0,1-4.206.367c-.659.015-1.349.024-2.019.024l-2.439,0Z" transform="translate(1.091 1.094)"/>
      </g>
      <g id="_Group_" data-name="&lt;Group&gt;" transform="translate(22.436 19.621)">
        <g id="_Group_2" data-name="&lt;Group&gt;">
          <g id="_Group_3" data-name="&lt;Group&gt;">
            <path id="_Path_" data-name="&lt;Path&gt;" d="M43.265,28.21a11.135,11.135,0,0,1,5.3-9.342,11.4,11.4,0,0,0-8.98-4.855c-3.778-.4-7.441,2.261-9.367,2.261-1.963,0-4.927-2.221-8.119-2.156a11.959,11.959,0,0,0-10.064,6.138c-4.351,7.534-1.106,18.606,3.063,24.7,2.086,2.982,4.523,6.313,7.712,6.195,3.121-.129,4.286-1.99,8.054-1.99,3.732,0,4.826,1.99,8.08,1.915,3.349-.054,5.459-3,7.471-6.006a24.664,24.664,0,0,0,3.416-6.958A10.76,10.76,0,0,1,43.265,28.21Z" transform="translate(-9.972 -2.154)" fill="#fff"/>
            <path id="_Path_2" data-name="&lt;Path&gt;" d="M26.1,16.574A10.963,10.963,0,0,0,28.6,8.72a11.154,11.154,0,0,0-7.217,3.734,10.432,10.432,0,0,0-2.573,7.563A9.223,9.223,0,0,0,26.1,16.574Z" transform="translate(1.052 -8.72)" fill="#fff"/>
          </g>
        </g>
        <g id="Group_20712" data-name="Group 20712" transform="translate(55.025 20.589)">
          <path id="Path_83033" data-name="Path 83033" d="M52.146,38.467H41.5l-2.558,7.552H34.427l10.088-27.94H49.2l10.088,27.94H54.7ZM42.6,34.982h8.442L46.879,22.725h-.116Z" transform="translate(-34.427 -17.612)" fill="#fff"/>
          <path id="Path_83034" data-name="Path 83034" d="M65.82,31.749c0,6.33-3.388,10.4-8.5,10.4a6.906,6.906,0,0,1-6.409-3.564h-.1v10.09H46.631V21.563h4.047v3.388h.077a7.226,7.226,0,0,1,6.486-3.6C62.412,21.35,65.82,25.437,65.82,31.749Zm-4.3,0c0-4.124-2.131-6.836-5.383-6.836-3.195,0-5.344,2.769-5.344,6.836,0,4.1,2.149,6.853,5.344,6.853C59.391,38.6,61.522,35.911,61.522,31.749Z" transform="translate(-19.172 -13.527)" fill="#fff"/>
          <path id="Path_83035" data-name="Path 83035" d="M75.785,31.749c0,6.33-3.388,10.4-8.5,10.4a6.906,6.906,0,0,1-6.409-3.564h-.1v10.09H56.6V21.563h4.047v3.388h.077a7.226,7.226,0,0,1,6.486-3.6C72.377,21.35,75.785,25.437,75.785,31.749Zm-4.3,0c0-4.124-2.131-6.836-5.383-6.836-3.195,0-5.344,2.769-5.344,6.836,0,4.1,2.149,6.853,5.344,6.853,3.252,0,5.383-2.692,5.383-6.853Z" transform="translate(-6.716 -13.527)" fill="#fff"/>
          <path id="Path_83036" data-name="Path 83036" d="M74.088,38.492c.31,2.771,3,4.59,6.68,4.59,3.524,0,6.06-1.819,6.06-4.318,0-2.169-1.529-3.467-5.15-4.357l-3.621-.872C72.926,32.3,70.544,29.9,70.544,26c0-4.821,4.2-8.132,10.167-8.132,5.9,0,9.951,3.311,10.088,8.132H86.578c-.253-2.788-2.558-4.471-5.926-4.471s-5.673,1.7-5.673,4.181c0,1.975,1.472,3.138,5.073,4.027l3.078.756c5.733,1.356,8.114,3.658,8.114,7.745,0,5.227-4.164,8.5-10.786,8.5-6.2,0-10.38-3.2-10.65-8.251Z" transform="translate(9.799 -17.871)" fill="#fff"/>
          <path id="Path_83037" data-name="Path 83037" d="M87.326,19.3v4.821H91.2v3.311H87.326v11.23c0,1.745.776,2.558,2.479,2.558a13.067,13.067,0,0,0,1.375-.1v3.291a11.483,11.483,0,0,1-2.322.193c-4.124,0-5.733-1.549-5.733-5.5V27.432H80.163V24.121h2.962V19.3Z" transform="translate(22.742 -16.085)" fill="#fff"/>
          <path id="Path_83038" data-name="Path 83038" d="M86.065,31.768c0-6.409,3.775-10.437,9.661-10.437,5.906,0,9.664,4.027,9.664,10.437,0,6.427-3.738,10.437-9.664,10.437S86.065,38.2,86.065,31.768Zm15.064,0c0-4.4-2.015-6.992-5.4-6.992s-5.4,2.615-5.4,6.992c0,4.414,2.013,6.989,5.4,6.989s5.4-2.575,5.4-6.989Z" transform="translate(30.12 -13.546)" fill="#fff"/>
          <path id="Path_83039" data-name="Path 83039" d="M96.186,21.563h3.988V25.03h.1a4.859,4.859,0,0,1,4.9-3.68,6.449,6.449,0,0,1,1.433.156v3.911a5.845,5.845,0,0,0-1.879-.253,4.213,4.213,0,0,0-4.357,4.687V41.934H96.186Z" transform="translate(42.771 -13.527)" fill="#fff"/>
          <path id="Path_83040" data-name="Path 83040" d="M119.593,35.969c-.563,3.7-4.164,6.236-8.771,6.236-5.926,0-9.6-3.97-9.6-10.34,0-6.39,3.7-10.534,9.428-10.534,5.636,0,9.18,3.872,9.18,10.048v1.433H105.438v.253a5.305,5.305,0,0,0,5.48,5.77,4.609,4.609,0,0,0,4.7-2.865Zm-14.135-6.08h10.184a4.9,4.9,0,0,0-5-5.17,5.157,5.157,0,0,0-5.188,5.17Z" transform="translate(49.06 -13.546)" fill="#fff"/>
        </g>
      </g>
    </g>
    <g id="_Group_4" data-name="&lt;Group&gt;" transform="translate(80.259 18.983)">
      <g id="Group_20714" data-name="Group 20714">
        <path id="Path_83041" data-name="Path 83041" d="M40.52,8.739a5.939,5.939,0,0,1,6.317,6.671c0,4.289-2.318,6.754-6.317,6.754H35.671V8.739ZM37.756,20.266h2.531a4.221,4.221,0,0,0,4.427-4.828,4.232,4.232,0,0,0-4.427-4.8H37.756Z" transform="translate(-35.671 -8.078)" fill="#fff"/>
        <path id="Path_83042" data-name="Path 83042" d="M41.693,15.365a4.8,4.8,0,1,1,9.556,0,4.8,4.8,0,1,1-9.556,0Zm7.5,0c0-2.2-.987-3.48-2.718-3.48s-2.716,1.284-2.716,3.48c0,2.214.978,3.488,2.716,3.488s2.718-1.283,2.718-3.488Z" transform="translate(-28.171 -6.348)" fill="#fff"/>
        <path id="Path_83043" data-name="Path 83043" d="M57.828,20.326H55.754L53.66,12.864H53.5l-2.085,7.462H49.362L46.569,10.195H48.6l1.815,7.731h.149l2.083-7.731h1.918l2.083,7.731H56.8l1.806-7.731h2Z" transform="translate(-22.048 -6.24)" fill="#fff"/>
        <path id="Path_83044" data-name="Path 83044" d="M53.854,10.309h1.925v1.609h.149a3.033,3.033,0,0,1,3.023-1.805,3.3,3.3,0,0,1,3.507,3.768V20.44h-2V14.384c0-1.628-.708-2.438-2.186-2.438a2.324,2.324,0,0,0-2.419,2.567v5.927h-2Z" transform="translate(-12.943 -6.354)" fill="#fff"/>
        <path id="Path_83045" data-name="Path 83045" d="M59.094,8.437h2V22.524h-2Z" transform="translate(-6.393 -8.437)" fill="#fff"/>
        <path id="Path_83046" data-name="Path 83046" d="M61.23,15.365a4.8,4.8,0,1,1,9.557,0,4.8,4.8,0,1,1-9.557,0Zm7.5,0c0-2.2-.987-3.48-2.718-3.48S63.3,13.169,63.3,15.365c0,2.214.978,3.488,2.716,3.488s2.718-1.283,2.718-3.488Z" transform="translate(-3.75 -6.348)" fill="#fff"/>
        <path id="Path_83047" data-name="Path 83047" d="M66.4,17.57c0-1.824,1.358-2.875,3.768-3.025l2.744-.158v-.875c0-1.07-.708-1.674-2.074-1.674-1.116,0-1.89.41-2.112,1.126H66.792c.2-1.74,1.841-2.856,4.14-2.856,2.54,0,3.973,1.264,3.973,3.4v6.922H72.98V19.011h-.158A3.409,3.409,0,0,1,69.778,20.6,3.061,3.061,0,0,1,66.4,17.57Zm6.513-.866v-.847l-2.474.158c-1.4.093-2.028.568-2.028,1.461,0,.912.791,1.442,1.879,1.442A2.388,2.388,0,0,0,72.914,16.7Z" transform="translate(2.741 -6.348)" fill="#fff"/>
        <path id="Path_83048" data-name="Path 83048" d="M71.348,17.453c0-3.2,1.646-5.229,4.206-5.229A3.339,3.339,0,0,1,78.661,14h.149V8.437h2V22.524H78.894v-1.6h-.158a3.516,3.516,0,0,1-3.182,1.768C72.976,22.691,71.348,20.663,71.348,17.453Zm2.065,0c0,2.149,1.013,3.442,2.707,3.442s2.727-1.312,2.727-3.433-1.052-3.442-2.727-3.442-2.707,1.3-2.707,3.433Z" transform="translate(8.925 -8.437)" fill="#fff"/>
        <path id="Path_83049" data-name="Path 83049" d="M79.243,15.365a4.8,4.8,0,1,1,9.556,0,4.8,4.8,0,1,1-9.556,0Zm7.5,0c0-2.2-.987-3.48-2.718-3.48s-2.716,1.284-2.716,3.48c0,2.214.978,3.488,2.716,3.488S86.742,17.57,86.742,15.365Z" transform="translate(18.765 -6.348)" fill="#fff"/>
        <path id="Path_83050" data-name="Path 83050" d="M84.669,10.309h1.925v1.609h.149a3.033,3.033,0,0,1,3.023-1.805,3.3,3.3,0,0,1,3.507,3.768V20.44h-2V14.384c0-1.628-.708-2.438-2.186-2.438a2.324,2.324,0,0,0-2.419,2.567v5.927h-2Z" transform="translate(25.577 -6.354)" fill="#fff"/>
        <path id="Path_83051" data-name="Path 83051" d="M95.521,9.074v2.569h2.2v1.684h-2.2v5.21c0,1.061.437,1.526,1.433,1.526a6.674,6.674,0,0,0,.762-.046v1.666a6.56,6.56,0,0,1-1.088.1c-2.224,0-3.109-.782-3.109-2.736V13.326H91.911V11.642h1.608V9.074Z" transform="translate(34.628 -7.641)" fill="#fff"/>
        <path id="Path_83052" data-name="Path 83052" d="M95.7,8.437h1.982V14.02h.158a3.118,3.118,0,0,1,3.089-1.815,3.338,3.338,0,0,1,3.489,3.777v6.541h-2V16.476c0-1.618-.754-2.438-2.166-2.438A2.367,2.367,0,0,0,97.7,16.606v5.917h-2Z" transform="translate(39.371 -8.437)" fill="#fff"/>
        <path id="Path_83053" data-name="Path 83053" d="M109.824,17.7a4.113,4.113,0,0,1-4.39,2.931,4.6,4.6,0,0,1-4.68-5.229,4.673,4.673,0,0,1,4.671-5.293c2.819,0,4.52,1.926,4.52,5.107v.7h-7.154v.112a2.678,2.678,0,0,0,2.7,2.9A2.428,2.428,0,0,0,107.9,17.7Zm-7.033-3.265h5.117a2.444,2.444,0,0,0-2.494-2.625,2.591,2.591,0,0,0-2.623,2.625Z" transform="translate(45.628 -6.348)" fill="#fff"/>
      </g>
    </g>
  </g>
</svg>
